<svg width="55" height="46" viewBox="0 0 55 46" fill="none" xmlns="http://www.w3.org/2000/svg">
<rect width="55" height="46" rx="12" fill="#F1F6FF"/>
<g clip-path="url(#clip0_7_799)">
<path opacity="0.803" fill-rule="evenodd" clip-rule="evenodd" d="M34.9998 23.937C35.5302 23.937 36.0389 24.1477 36.414 24.5228C36.7891 24.8979 36.9998 25.4066 36.9998 25.937V29.487C36.9998 30.0174 36.7891 30.5262 36.414 30.9012C36.0389 31.2763 35.5302 31.487 34.9998 31.487H23.7218C23.226 31.487 22.7352 31.3894 22.2771 31.1997C21.8191 31.0099 21.403 30.7319 21.0524 30.3813C20.7019 30.0308 20.4238 29.6146 20.2341 29.1566C20.0444 28.6986 19.9468 28.2078 19.9468 27.712C19.9468 27.2163 20.0444 26.7254 20.2341 26.2674C20.4238 25.8094 20.7019 25.3932 21.0524 25.0427C21.403 24.6921 21.8191 24.4141 22.2771 24.2244C22.7352 24.0347 23.226 23.937 23.7218 23.937H34.9998ZM22.7898 25.825C22.5414 25.8245 22.2954 25.8729 22.0658 25.9674C21.8362 26.062 21.6274 26.2008 21.4515 26.376C21.2755 26.5513 21.1358 26.7594 21.0403 26.9887C20.9447 27.2179 20.8953 27.4637 20.8948 27.712C20.895 27.9604 20.9443 28.2063 21.0396 28.4356C21.135 28.6649 21.2746 28.8732 21.4505 29.0486C21.6264 29.2239 21.8351 29.3629 22.0647 29.4575C22.2944 29.5521 22.5404 29.6005 22.7888 29.6C23.0372 29.6005 23.2833 29.5521 23.513 29.4575C23.7427 29.3629 23.9515 29.224 24.1274 29.0486C24.3034 28.8733 24.4431 28.665 24.5386 28.4357C24.634 28.2063 24.6834 27.9604 24.6838 27.712C24.6833 27.4637 24.6338 27.2179 24.5383 26.9887C24.4428 26.7594 24.3031 26.5513 24.1271 26.376C23.9511 26.2008 23.7424 26.062 23.5127 25.9674C23.2831 25.8729 23.0381 25.8245 22.7898 25.825Z" fill="#1A47FF"/>
<path opacity="0.803" fill-rule="evenodd" clip-rule="evenodd" d="M30.9539 17.1202L33.4789 19.6352C33.8545 20.0096 34.0661 20.5178 34.067 21.0482C34.068 21.5785 33.8582 22.0875 33.4839 22.4632L33.4789 22.4692L25.5229 30.3942C24.8113 31.1033 23.8476 31.5015 22.8429 31.5015C21.8383 31.5015 20.8746 31.1033 20.1629 30.3942C19.8117 30.0441 19.5329 29.6282 19.3428 29.1702C19.1526 28.7122 19.0547 28.2211 19.0547 27.7252C19.0547 27.2293 19.1526 26.7382 19.3428 26.2802C19.5329 25.8222 19.8117 25.4063 20.1629 25.0562L28.1309 17.1192C28.5058 16.7458 29.0133 16.5361 29.5424 16.5361C30.0715 16.5361 30.5791 16.7468 30.9539 17.1202ZM22.7889 25.8252C22.2876 25.8244 21.8064 26.0227 21.4513 26.3766C21.0961 26.7304 20.896 27.2109 20.8949 27.7122C20.8952 27.9606 20.9444 28.2065 21.0398 28.4358C21.1351 28.6651 21.2747 28.8734 21.4506 29.0488C21.6265 29.2241 21.8353 29.3631 22.0649 29.4577C22.2945 29.5523 22.5406 29.6007 22.7889 29.6002C23.0374 29.6007 23.2834 29.5523 23.5131 29.4577C23.7428 29.3631 23.9516 29.2242 24.1276 29.0488C24.3036 28.8735 24.4433 28.6652 24.5388 28.4359C24.6342 28.2065 24.6835 27.9606 24.6839 27.7122C24.6834 27.4639 24.634 27.2181 24.5385 26.9889C24.4429 26.7596 24.3032 26.5515 24.1273 26.3762C23.9513 26.201 23.7425 26.0622 23.5129 25.9676C23.2833 25.8731 23.0373 25.8247 22.7889 25.8252Z" fill="#1A47FF"/>
<path fill-rule="evenodd" clip-rule="evenodd" d="M24.579 14.5C25.1094 14.5 25.6182 14.7107 25.9932 15.0858C26.3683 15.4609 26.579 15.9696 26.579 16.5V27.698C26.5872 28.2008 26.4952 28.7002 26.3084 29.1672C26.1217 29.6341 25.8438 30.0592 25.4911 30.4176C25.1384 30.7761 24.7179 31.0608 24.2541 31.2551C23.7903 31.4495 23.2924 31.5496 22.7895 31.5496C22.2866 31.5496 21.7888 31.4495 21.3249 31.2551C20.8611 31.0608 20.4406 30.7761 20.0879 30.4176C19.7352 30.0592 19.4574 29.6341 19.2706 29.1672C19.0838 28.7002 18.9918 28.2008 19 27.698V16.5C19 15.9696 19.2107 15.4609 19.5858 15.0858C19.9609 14.7107 20.4696 14.5 21 14.5H24.579ZM22.789 25.825C22.2877 25.8242 21.8065 26.0225 21.4513 26.3764C21.0962 26.7302 20.8961 27.2106 20.895 27.712C20.8953 27.9604 20.9445 28.2062 21.0398 28.4356C21.1352 28.6649 21.2748 28.8732 21.4507 29.0486C21.6266 29.2239 21.8353 29.3629 22.065 29.4575C22.2946 29.5521 22.5406 29.6005 22.789 29.6C23.0374 29.6005 23.2835 29.5521 23.5132 29.4575C23.7429 29.3629 23.9517 29.2239 24.1277 29.0486C24.3037 28.8733 24.4434 28.665 24.5388 28.4357C24.6343 28.2063 24.6836 27.9604 24.684 27.712C24.6835 27.4637 24.6341 27.2179 24.5385 26.9886C24.443 26.7594 24.3033 26.5513 24.1273 26.376C23.9514 26.2008 23.7426 26.062 23.513 25.9674C23.2833 25.8729 23.0373 25.8245 22.789 25.825Z" fill="#1F2024"/>
</g>
<defs>
<clipPath id="clip0_7_799">
<rect width="18" height="18" fill="white" transform="translate(19 14)"/>
</clipPath>
</defs>
</svg>
