<svg width="19" height="11" viewBox="0 0 19 11" fill="none" xmlns="http://www.w3.org/2000/svg">
<g clip-path="url(#clip0_1_87)">
<path fill-rule="evenodd" clip-rule="evenodd" d="M14.4226 1.12846L17.9576 4.66446C18.1451 4.85198 18.2504 5.10629 18.2504 5.37146C18.2504 5.63662 18.1451 5.89093 17.9576 6.07846L14.4226 9.61346C14.234 9.79561 13.9814 9.89641 13.7192 9.89413C13.457 9.89185 13.2062 9.78668 13.0208 9.60127C12.8354 9.41586 12.7302 9.16505 12.728 8.90286C12.7257 8.64066 12.8265 8.38806 13.0086 8.19946L14.7856 6.42146H7.76562C7.50041 6.42146 7.24605 6.3161 7.05852 6.12856C6.87098 5.94103 6.76562 5.68667 6.76562 5.42146C6.76562 5.15624 6.87098 4.90189 7.05852 4.71435C7.24605 4.52681 7.50041 4.42146 7.76562 4.42146H14.8866L13.0086 2.54146C12.831 2.35201 12.734 2.10087 12.7382 1.84119C12.7424 1.5815 12.8475 1.33365 13.0312 1.15007C13.2149 0.966483 13.4629 0.861576 13.7225 0.857543C13.9822 0.85351 14.2333 0.950667 14.4226 1.12846Z" fill="#1A47FF"/>
</g>
<defs>
<clipPath id="clip0_1_87">
<rect width="12" height="10" fill="white" transform="translate(6.76562 0.421387)"/>
</clipPath>
</defs>
</svg>
